# xmcd
#
# Track frame offsets:
#	150
#	29995
#	40378
#	71379
#	92507
#	121022
#	157044
#	179021
#	195985
#	214806
#	247547
#
# Disc length: 4300 seconds
#
# Revision: 0
# Processed by: cddbd v1.5.2PL0 Copyright (c) Steve Scherf et al.
# Submitted via: EasyCDDAExtractor 10.0.3.1
#
DISCID=9110ca0b
DTITLE=Dream Theater - The Dark Side Of A Dream [CD2)
DYEAR=2005
DGENRE=etalProgressive Rock
TTITLE0=Speak to Me - Breathe in the Air
TTITLE1=On the Run
TTITLE2=Time - Breathe
TTITLE3=The Great Gig in the Sky
TTITLE4=Money
TTITLE5=Us and Them
TTITLE6=Any Colour You Like
TTITLE7=Brain Damage
TTITLE8=Eclipse
TTITLE9=The Spirit Carries On
TTITLE10=In the Name of God
EXTD=
EXTT0=
EXTT1=
EXTT2=
EXTT3=
EXTT4=
EXTT5=
EXTT6=
EXTT7=
EXTT8=
EXTT9=
EXTT10=
PLAYORDER=
